<?xml version="1.0" encoding="UTF-8" standalone="no"?>
<!DOCTYPE svg PUBLIC "-//W3C//DTD SVG 1.1//EN" "http://www.w3.org/Graphics/SVG/1.1/DTD/svg11.dtd">
<svg xmlns="http://www.w3.org/2000/svg" version="1.1" viewBox="0.00 0.00 512.00 512.00" width="512.00" height="512.00">
<path fill="currentcolor" d="
  M 251.61 0.00
  L 260.35 0.00
  Q 291.19 2.31 312.69 21.82
  Q 396.07 97.50 479.48 173.16
  Q 489.50 182.25 493.57 187.31
  Q 510.06 207.82 512.00 235.40
  L 512.00 428.24
  C 508.55 472.71 477.95 509.06 431.73 512.00
  L 80.38 512.00
  C 36.42 508.67 3.14 474.76 0.00 430.89
  L 0.00 235.18
  Q 2.46 204.15 22.78 182.43
  Q 25.17 179.88 37.40 168.78
  Q 118.44 95.25 199.47 21.71
  Q 220.83 2.33 251.61 0.00
  Z
  M 51.17 428.50
  C 51.16 447.58 66.63 462.86 85.75 462.86
  Q 255.38 462.87 425.00 462.66
  C 439.93 462.64 452.95 452.33 456.84 438.38
  Q 458.26 433.32 458.26 418.50
  Q 458.24 332.58 458.25 246.66
  Q 458.25 239.59 457.62 236.39
  C 456.11 228.68 450.88 218.67 445.01 213.34
  Q 362.17 138.15 279.32 62.97
  Q 273.28 57.49 269.69 55.71
  C 260.15 50.98 248.14 52.30 238.81 56.92
  Q 234.48 59.07 228.40 64.58
  Q 145.51 139.79 62.62 215.00
  Q 62.56 215.06 60.05 217.17
  C 54.06 222.19 51.23 231.66 51.23 238.75
  Q 51.21 333.63 51.17 428.50
  Z"
/>
</svg>
