<?xml version="1.0" encoding="UTF-8" standalone="no"?>
<!DOCTYPE svg PUBLIC "-//W3C//DTD SVG 1.1//EN" "http://www.w3.org/Graphics/SVG/1.1/DTD/svg11.dtd">
<svg xmlns="http://www.w3.org/2000/svg" version="1.1" viewBox="0.00 0.00 512.00 512.00" width="512.00" height="512.00">
<path fill="#000000" d="
  M 252.23 0.00
  L 259.35 0.00
  C 336.87 3.74 387.48 70.23 411.46 137.26
  C 430.42 190.25 435.27 249.42 427.90 305.47
  C 423.39 339.79 414.43 372.88 399.82 402.44
  Q 397.49 407.14 395.14 411.83
  C 391.22 419.65 386.38 427.08 381.82 434.55
  Q 372.16 450.36 354.65 467.89
  C 328.71 493.87 296.30 510.43 259.19 512.00
  L 251.95 512.00
  C 214.96 510.37 182.64 493.87 156.78 467.97
  Q 139.22 450.40 129.59 434.69
  C 124.77 426.83 119.80 419.04 115.67 410.80
  C 108.61 396.65 102.21 382.42 97.45 367.27
  C 92.72 352.22 88.59 337.37 85.98 321.84
  Q 85.09 316.56 84.20 311.27
  C 82.54 301.36 81.81 291.25 80.86 281.25
  Q 80.34 275.79 80.32 254.51
  Q 80.29 217.94 87.27 183.02
  C 103.54 101.55 157.28 4.24 252.23 0.00
  Z
  M 122.32 166.63
  Q 122.35 166.43 122.16 166.39
  L 122.15 166.39
  Q 121.95 166.34 121.90 166.54
  Q 111.09 206.73 110.23 248.28
  Q 110.08 255.47 111.18 263.41
  C 115.72 296.22 124.25 327.04 138.94 354.83
  C 147.48 370.97 159.84 388.74 173.89 401.00
  C 183.07 409.00 193.78 416.52 205.09 420.74
  C 239.29 433.49 271.75 418.90 293.17 391.42
  C 300.46 382.06 306.04 371.02 311.06 360.32
  Q 312.90 356.40 314.18 352.63
  Q 319.94 335.68 322.43 320.99
  C 327.36 291.88 324.71 257.88 311.58 230.43
  C 306.78 220.41 297.51 208.05 287.19 203.39
  Q 282.90 201.45 279.74 201.23
  C 272.13 200.69 266.70 207.35 261.16 209.63
  C 251.90 213.44 241.01 206.55 240.76 196.50
  Q 240.59 189.32 244.87 185.36
  Q 251.35 179.37 261.04 175.00
  C 273.16 169.52 286.22 170.44 298.22 175.45
  Q 305.26 178.39 312.36 184.08
  C 350.49 214.64 358.65 274.02 353.04 319.13
  Q 352.33 324.77 350.62 332.47
  C 348.51 341.98 346.63 350.84 343.22 360.71
  C 334.40 386.25 319.79 409.80 300.10 427.87
  C 295.58 432.01 289.63 436.44 284.47 439.49
  C 275.49 444.79 266.21 449.65 255.90 452.03
  C 251.20 453.12 246.62 454.40 241.81 454.79
  C 235.90 455.26 230.55 455.71 224.59 455.23
  C 215.15 454.47 205.86 453.11 196.92 449.64
  C 191.99 447.73 187.01 445.98 182.49 443.48
  Q 174.16 438.85 166.36 433.26
  Q 165.58 432.71 166.17 433.46
  C 186.52 459.50 216.20 479.35 250.18 481.76
  Q 253.17 481.97 256.18 481.05
  Q 260.03 479.87 263.86 478.60
  C 267.80 477.30 271.46 475.29 275.26 473.47
  C 290.95 465.94 306.85 451.83 317.34 438.09
  C 340.09 408.30 353.93 374.21 360.08 337.15
  Q 367.57 291.99 359.32 246.84
  C 355.27 224.64 347.18 200.46 334.17 181.84
  C 328.40 173.58 322.41 165.60 315.60 159.90
  C 308.48 153.95 298.28 147.90 289.46 146.02
  C 266.23 141.09 246.95 155.81 236.21 174.97
  C 226.86 191.64 222.00 214.91 224.98 233.25
  Q 225.99 239.43 228.45 247.26
  Q 230.47 253.70 230.46 256.21
  C 230.37 269.08 214.18 276.06 204.91 266.49
  Q 202.89 264.40 201.41 260.51
  C 195.08 243.81 193.04 226.98 194.93 209.03
  C 196.59 193.34 200.57 179.63 207.54 165.31
  C 223.73 132.02 256.48 109.02 294.62 116.40
  C 309.66 119.31 326.19 128.66 337.32 138.94
  C 349.19 149.91 360.07 164.77 367.90 179.67
  C 389.19 220.17 396.04 268.87 392.94 314.50
  Q 391.93 329.35 389.26 343.97
  Q 389.23 344.15 389.41 344.19
  L 389.41 344.19
  Q 389.59 344.23 389.64 344.05
  C 396.57 318.68 400.18 293.30 401.04 267.14
  Q 401.35 257.53 400.15 248.42
  C 395.58 213.71 385.22 178.03 367.10 147.97
  C 350.47 120.37 324.34 92.10 290.76 87.18
  C 262.14 82.98 236.15 97.87 218.78 119.78
  C 211.80 128.58 206.50 138.77 201.57 148.88
  C 195.15 162.06 191.02 178.23 188.77 191.75
  Q 183.89 221.06 189.96 251.99
  C 192.93 267.17 199.08 284.16 208.94 296.05
  C 212.65 300.52 218.72 306.24 224.43 308.72
  C 233.47 312.65 238.70 310.03 246.34 304.64
  Q 254.01 299.21 261.52 302.55
  C 269.21 305.95 272.65 314.59 269.27 322.42
  C 266.75 328.25 257.18 333.74 251.21 336.57
  C 238.49 342.58 225.04 341.71 212.35 336.21
  Q 205.60 333.28 198.72 327.71
  C 160.26 296.56 152.42 236.27 158.60 190.58
  Q 159.17 186.33 160.36 180.97
  C 163.19 168.24 166.01 155.82 170.68 144.20
  C 179.51 122.21 192.83 101.02 211.22 84.16
  C 215.74 80.02 221.63 75.59 226.81 72.54
  C 235.84 67.22 245.15 62.34 255.51 59.95
  C 260.10 58.89 264.58 57.63 269.24 57.24
  C 279.12 56.42 289.20 56.07 298.98 58.21
  Q 303.51 59.20 308.02 60.30
  C 312.18 61.32 316.12 63.05 320.17 64.61
  C 329.04 68.02 337.27 73.16 344.85 78.68
  Q 346.12 79.61 345.14 78.38
  C 324.49 52.44 295.00 32.47 260.98 30.24
  C 256.67 29.96 253.43 31.48 249.42 32.76
  C 244.29 34.38 239.77 36.74 234.92 39.08
  C 230.44 41.24 226.49 44.13 222.35 46.86
  C 212.00 53.69 201.19 64.43 193.69 74.30
  C 175.27 98.55 163.67 123.78 155.94 153.04
  C 144.44 196.58 144.63 244.83 157.70 288.10
  C 162.11 302.68 168.28 317.42 177.02 329.96
  C 182.56 337.90 188.33 345.64 194.33 350.92
  C 201.61 357.33 212.53 363.95 221.85 366.01
  C 236.39 369.22 251.31 364.04 262.07 353.81
  C 284.02 332.94 292.32 295.47 283.60 267.05
  Q 280.89 258.21 280.84 256.17
  Q 280.66 249.46 285.83 244.84
  C 291.76 239.53 300.37 239.95 306.21 245.34
  Q 308.59 247.54 309.48 249.76
  C 312.97 258.54 315.80 270.61 316.73 280.44
  C 317.82 292.05 316.78 303.42 314.58 314.94
  C 307.97 349.50 285.86 384.34 250.61 394.18
  Q 238.08 397.68 228.25 397.03
  Q 215.16 396.17 206.23 392.83
  C 192.13 387.56 178.51 378.13 167.86 366.76
  C 151.83 349.65 140.19 329.21 132.50 307.53
  C 116.66 262.86 113.69 212.78 122.32 166.63
  Z"
/>
</svg>
