<?xml version="1.0" encoding="UTF-8" standalone="no"?>
<!DOCTYPE svg PUBLIC "-//W3C//DTD SVG 1.1//EN" "http://www.w3.org/Graphics/SVG/1.1/DTD/svg11.dtd">
<svg xmlns="http://www.w3.org/2000/svg" version="1.1" viewBox="0.00 0.00 512.00 512.00" width="512.00" height="512.00">
<g stroke-width="2.00" fill="none" stroke-linecap="butt">
<path stroke="#4fd474" vector-effect="non-scaling-stroke" d="
  M 255.71 0.00
  L 255.66 30.13
  A 0.89 0.88 81.6 0 1 255.04 30.98
  C 246.11 33.79 236.79 37.21 228.91 42.49
  C 224.64 45.35 220.27 47.97 216.37 51.34
  C 208.33 58.30 200.52 65.38 194.06 73.82
  C 171.47 103.37 157.64 137.06 151.42 173.83
  C 143.23 222.27 147.68 277.25 171.29 320.80
  Q 173.75 325.34 177.31 330.37
  C 183.08 338.50 188.84 346.31 195.42 351.84
  C 202.80 358.04 213.39 364.35 222.70 366.12
  Q 237.30 368.88 251.09 361.48
  Q 253.10 360.40 255.24 359.48
  Q 255.68 359.29 255.68 359.77
  L 255.68 391.51
  A 1.66 1.65 81.4 0 1 254.52 393.09
  C 234.34 399.35 215.74 397.93 197.12 388.72
  C 178.89 379.71 165.03 365.72 153.43 348.91
  C 131.01 316.47 120.77 275.70 118.38 236.74
  C 116.88 212.31 117.99 189.16 122.62 165.19
  Q 122.63 165.13 122.56 165.12
  Q 122.53 165.12 122.50 165.12
  Q 122.39 165.13 122.36 165.24
  Q 111.11 205.87 110.23 247.93
  Q 110.07 255.29 111.18 263.39
  C 117.42 309.23 132.15 352.95 161.25 387.89
  C 184.15 415.39 218.80 434.64 255.19 420.77
  A 0.36 0.36 0.0 0 1 255.68 421.11
  L 255.67 451.27
  A 0.91 0.90 -8.1 0 1 255.01 452.14
  C 249.75 453.65 245.08 454.59 239.22 454.98
  C 235.27 455.24 231.55 455.75 227.60 455.44
  C 222.42 455.02 217.14 454.97 212.07 453.78
  C 206.70 452.51 201.58 451.43 196.44 449.45
  C 191.79 447.66 187.09 446.01 182.81 443.65
  Q 173.93 438.76 165.77 432.84
  A 0.07 0.07 0.0 0 0 165.67 432.94
  C 186.94 460.01 217.80 480.60 252.93 481.82
  C 253.83 481.86 254.28 481.65 255.12 481.39
  Q 255.69 481.21 255.69 481.80
  L 255.68 512.00"
/>
<path stroke="#10b051" vector-effect="non-scaling-stroke" d="
  M 321.72 64.72
  C 328.46 67.56 335.56 71.78 341.57 76.02
  Q 344.32 77.96 342.17 75.37
  C 326.13 56.06 304.35 40.44 279.85 33.63
  C 277.25 32.91 274.21 32.38 271.40 31.75
  C 267.20 30.80 262.88 31.14 258.53 30.35
  A 2.42 2.42 0.0 0 0 255.68 32.72
  L 255.65 58.60
  A 0.56 0.55 87.6 0 0 256.25 59.16
  C 259.48 58.88 262.06 58.15 265.15 57.35
  C 268.16 56.57 271.36 57.08 274.81 56.54
  Q 279.09 55.87 285.01 56.27
  Q 304.85 57.60 321.72 64.72"
/>
<path stroke="#4fd474" vector-effect="non-scaling-stroke" d="
  M 168.51 150.21
  C 155.62 187.20 153.18 225.94 161.82 263.66
  C 164.30 274.48 168.33 286.06 173.19 295.54
  C 179.64 308.13 187.11 317.88 197.54 326.70
  Q 205.02 333.01 212.15 336.07
  C 226.39 342.18 242.16 342.98 255.32 334.13
  Q 255.68 333.89 255.68 333.46
  L 255.68 301.59
  A 0.45 0.45 0.0 0 0 255.14 301.15
  C 252.94 301.60 250.82 301.96 248.82 303.10
  C 240.09 308.10 235.42 313.68 224.40 308.74
  C 218.25 305.98 211.53 299.51 207.71 294.52
  C 198.70 282.75 192.99 266.96 190.03 251.99
  C 184.17 222.37 186.28 193.14 195.49 164.45
  Q 198.62 154.69 202.88 145.90
  C 214.05 122.84 230.47 101.67 254.86 91.70
  A 1.32 1.32 0.0 0 0 255.67 90.48
  L 255.69 60.70
  Q 255.69 60.08 255.06 60.12
  Q 253.16 60.26 251.98 60.68
  C 246.35 62.72 238.58 65.57 232.59 69.14
  C 224.39 74.03 216.44 79.03 209.55 85.80
  C 202.28 92.94 195.31 100.17 189.69 108.67
  C 181.15 121.58 173.62 135.57 168.51 150.21"
/>
<path stroke="#10b051" vector-effect="non-scaling-stroke" d="
  M 259.00 90.51
  C 257.04 91.15 255.62 91.32 255.64 93.88
  Q 255.73 106.26 255.63 118.50
  A 0.55 0.55 0.0 0 0 256.38 119.02
  Q 259.33 117.86 262.54 117.24
  C 266.51 116.46 270.13 115.12 274.14 115.02
  C 280.66 114.86 287.20 114.68 293.55 115.85
  C 313.39 119.50 331.49 131.67 345.13 146.49
  C 359.91 162.56 370.80 181.91 378.12 201.40
  Q 388.43 228.87 391.79 259.52
  C 392.38 264.85 393.16 270.16 393.48 275.50
  Q 394.77 296.68 393.13 317.82
  C 392.88 321.09 391.96 325.48 391.93 328.47
  Q 391.88 335.57 393.19 328.60
  Q 395.34 317.13 397.37 305.61
  C 397.94 302.38 398.07 298.63 398.67 295.13
  C 399.09 292.69 398.93 290.10 399.37 287.54
  C 400.50 281.06 400.08 274.32 400.74 267.73
  C 401.08 264.35 401.20 260.46 400.93 257.77
  Q 397.37 222.89 386.08 189.74
  Q 375.75 159.43 356.02 132.27
  C 336.89 105.95 307.11 83.63 273.01 87.20
  Q 267.38 87.79 259.00 90.51"
/>
<path stroke="#4fd474" vector-effect="non-scaling-stroke" d="
  M 208.17 164.19
  Q 201.89 177.44 198.44 189.01
  Q 196.35 196.00 195.06 207.77
  C 193.06 225.92 194.84 242.80 201.16 259.80
  Q 202.90 264.49 205.24 266.72
  C 215.07 276.09 230.98 268.66 230.46 255.24
  Q 230.39 253.24 228.23 246.52
  C 223.07 230.45 223.05 213.23 227.42 196.73
  Q 229.88 187.44 236.40 175.10
  Q 243.36 161.92 255.01 153.36
  A 1.73 1.73 0.0 0 0 255.71 151.97
  L 255.72 120.25
  A 0.44 0.43 -9.6 0 0 255.14 119.84
  Q 253.19 120.52 251.19 121.23
  C 248.28 122.27 245.73 124.06 242.99 125.54
  C 228.01 133.64 215.22 149.33 208.17 164.19"
/>
<path stroke="#10b051" vector-effect="non-scaling-stroke" d="
  M 270.62 447.09
  C 266.60 448.57 259.87 452.31 256.34 451.90
  Q 255.69 451.83 255.69 452.48
  L 255.65 480.49
  Q 255.65 481.04 256.18 480.86
  C 260.76 479.32 265.24 478.10 269.61 475.93
  C 273.81 473.84 278.15 471.84 281.97 469.45
  Q 302.51 456.61 316.30 438.78
  Q 331.72 418.83 340.53 399.74
  C 354.98 368.42 362.72 333.13 363.18 297.92
  C 363.76 252.67 354.03 203.91 323.63 168.63
  C 306.65 148.92 281.32 137.46 257.07 152.43
  Q 255.56 153.36 255.58 155.25
  Q 255.71 165.84 255.65 176.20
  Q 255.65 177.46 256.78 176.89
  C 260.17 175.15 263.38 173.36 267.17 172.45
  C 269.89 171.80 272.52 171.02 275.33 171.00
  C 279.01 170.98 282.63 170.82 286.19 171.51
  Q 297.85 173.77 305.56 178.67
  C 353.41 209.07 361.45 283.76 350.86 333.52
  C 347.55 349.07 343.39 363.53 336.59 377.63
  C 327.11 397.27 316.69 412.83 300.99 427.46
  C 298.45 429.82 295.39 431.86 292.56 434.13
  C 287.39 438.27 282.22 441.17 276.68 444.32
  Q 274.07 445.81 270.62 447.09"
/>
<path stroke="#4fd474" vector-effect="non-scaling-stroke" d="
  M 242.20 189.46
  C 237.77 199.48 244.33 209.89 255.08 210.78
  A 0.56 0.56 0.0 0 0 255.68 210.22
  L 255.68 178.73
  Q 255.68 177.67 254.78 178.24
  C 250.12 181.17 244.40 184.46 242.20 189.46"
/>
<path stroke="#10b051" vector-effect="non-scaling-stroke" d="
  M 260.93 417.87
  Q 264.17 416.23 267.34 414.48
  C 271.81 412.01 275.75 408.51 279.81 405.31
  Q 284.06 401.97 289.87 394.97
  C 299.04 383.91 307.35 369.16 312.31 356.57
  C 319.17 339.14 323.60 318.28 324.15 298.93
  C 324.91 272.50 320.59 245.49 306.56 222.65
  C 300.43 212.69 286.03 197.12 272.56 203.04
  Q 269.28 204.48 268.23 205.42
  Q 262.94 210.18 256.20 211.12
  Q 255.67 211.20 255.67 211.74
  L 255.65 300.35
  Q 255.65 300.83 256.12 300.89
  Q 266.04 302.05 269.60 310.24
  C 274.82 322.24 265.15 328.92 256.06 334.18
  Q 255.69 334.39 255.69 334.81
  L 255.65 357.98
  Q 255.65 358.57 256.14 358.26
  Q 261.80 354.72 266.07 349.56
  C 283.53 328.47 291.40 296.05 283.74 269.52
  Q 281.57 262.01 281.19 260.02
  C 277.28 239.83 303.63 233.25 310.44 251.31
  C 319.98 276.61 319.28 305.49 310.75 330.81
  C 304.66 348.86 294.45 366.32 280.57 378.08
  C 273.75 383.86 265.39 389.48 256.81 392.20
  A 1.64 1.63 81.3 0 0 255.67 393.76
  L 255.67 419.63
  A 0.43 0.43 0.0 0 0 256.27 420.03
  Q 258.64 419.03 260.93 417.87"
/>
</g>
<path fill="#7fe881" d="
  M 252.38 0.00
  L 255.71 0.00
  L 255.66 30.13
  A 0.89 0.88 81.6 0 1 255.04 30.98
  C 246.11 33.79 236.79 37.21 228.91 42.49
  C 224.64 45.35 220.27 47.97 216.37 51.34
  C 208.33 58.30 200.52 65.38 194.06 73.82
  C 171.47 103.37 157.64 137.06 151.42 173.83
  C 143.23 222.27 147.68 277.25 171.29 320.80
  Q 173.75 325.34 177.31 330.37
  C 183.08 338.50 188.84 346.31 195.42 351.84
  C 202.80 358.04 213.39 364.35 222.70 366.12
  Q 237.30 368.88 251.09 361.48
  Q 253.10 360.40 255.24 359.48
  Q 255.68 359.29 255.68 359.77
  L 255.68 391.51
  A 1.66 1.65 81.4 0 1 254.52 393.09
  C 234.34 399.35 215.74 397.93 197.12 388.72
  C 178.89 379.71 165.03 365.72 153.43 348.91
  C 131.01 316.47 120.77 275.70 118.38 236.74
  C 116.88 212.31 117.99 189.16 122.62 165.19
  Q 122.63 165.13 122.56 165.12
  Q 122.53 165.12 122.50 165.12
  Q 122.39 165.13 122.36 165.24
  Q 111.11 205.87 110.23 247.93
  Q 110.07 255.29 111.18 263.39
  C 117.42 309.23 132.15 352.95 161.25 387.89
  C 184.15 415.39 218.80 434.64 255.19 420.77
  A 0.36 0.36 0.0 0 1 255.68 421.11
  L 255.67 451.27
  A 0.91 0.90 -8.1 0 1 255.01 452.14
  C 249.75 453.65 245.08 454.59 239.22 454.98
  C 235.27 455.24 231.55 455.75 227.60 455.44
  C 222.42 455.02 217.14 454.97 212.07 453.78
  C 206.70 452.51 201.58 451.43 196.44 449.45
  C 191.79 447.66 187.09 446.01 182.81 443.65
  Q 173.93 438.76 165.77 432.84
  A 0.07 0.07 0.0 0 0 165.67 432.94
  C 186.94 460.01 217.80 480.60 252.93 481.82
  C 253.83 481.86 254.28 481.65 255.12 481.39
  Q 255.69 481.21 255.69 481.80
  L 255.68 512.00
  L 251.99 512.00
  C 199.86 509.65 156.96 477.09 129.48 434.48
  C 99.75 388.37 84.99 336.32 80.97 282.00
  C 80.30 272.84 79.92 259.35 80.29 247.92
  C 81.06 224.04 83.11 199.87 88.70 176.57
  C 90.48 169.15 92.10 161.71 94.40 154.43
  C 98.91 140.17 103.60 125.81 110.19 112.32
  Q 112.69 107.19 115.24 102.08
  C 141.76 48.86 189.55 2.41 252.38 0.00
  Z"
/>
<path fill="#1fbf66" d="
  M 255.71 0.00
  L 264.99 0.00
  Q 277.18 1.66 280.81 2.39
  C 323.34 11.02 358.29 41.54 381.70 77.01
  C 403.89 110.62 417.15 146.91 424.41 184.52
  Q 428.41 205.21 428.91 212.12
  Q 429.53 220.83 430.56 229.50
  C 431.31 235.82 430.98 243.27 431.34 251.16
  C 431.65 257.79 430.98 264.89 431.00 270.91
  C 431.02 279.57 430.02 286.95 429.28 295.01
  C 428.23 306.48 426.33 318.48 424.38 328.24
  Q 416.88 365.81 403.30 395.54
  C 379.21 448.28 338.59 499.16 277.03 510.29
  C 273.56 510.92 268.92 511.24 264.88 512.00
  L 255.68 512.00
  L 255.69 481.80
  Q 255.69 481.21 255.12 481.39
  C 254.28 481.65 253.83 481.86 252.93 481.82
  C 217.80 480.60 186.94 460.01 165.67 432.94
  A 0.07 0.07 0.0 0 1 165.77 432.84
  Q 173.93 438.76 182.81 443.65
  C 187.09 446.01 191.79 447.66 196.44 449.45
  C 201.58 451.43 206.70 452.51 212.07 453.78
  C 217.14 454.97 222.42 455.02 227.60 455.44
  C 231.55 455.75 235.27 455.24 239.22 454.98
  C 245.08 454.59 249.75 453.65 255.01 452.14
  A 0.91 0.90 -8.1 0 0 255.67 451.27
  L 255.68 421.11
  A 0.36 0.36 0.0 0 0 255.19 420.77
  C 218.80 434.64 184.15 415.39 161.25 387.89
  C 132.15 352.95 117.42 309.23 111.18 263.39
  Q 110.07 255.29 110.23 247.93
  Q 111.11 205.87 122.36 165.24
  Q 122.39 165.13 122.50 165.12
  Q 122.53 165.12 122.56 165.12
  Q 122.63 165.13 122.62 165.19
  C 117.99 189.16 116.88 212.31 118.38 236.74
  C 120.77 275.70 131.01 316.47 153.43 348.91
  C 165.03 365.72 178.89 379.71 197.12 388.72
  C 215.74 397.93 234.34 399.35 254.52 393.09
  A 1.66 1.65 81.4 0 0 255.68 391.51
  L 255.68 359.77
  Q 255.68 359.29 255.24 359.48
  Q 253.10 360.40 251.09 361.48
  Q 237.30 368.88 222.70 366.12
  C 213.39 364.35 202.80 358.04 195.42 351.84
  C 188.84 346.31 183.08 338.50 177.31 330.37
  Q 173.75 325.34 171.29 320.80
  C 147.68 277.25 143.23 222.27 151.42 173.83
  C 157.64 137.06 171.47 103.37 194.06 73.82
  C 200.52 65.38 208.33 58.30 216.37 51.34
  C 220.27 47.97 224.64 45.35 228.91 42.49
  C 236.79 37.21 246.11 33.79 255.04 30.98
  A 0.89 0.88 81.6 0 0 255.66 30.13
  L 255.71 0.00
  Z
  M 321.72 64.72
  C 328.46 67.56 335.56 71.78 341.57 76.02
  Q 344.32 77.96 342.17 75.37
  C 326.13 56.06 304.35 40.44 279.85 33.63
  C 277.25 32.91 274.21 32.38 271.40 31.75
  C 267.20 30.80 262.88 31.14 258.53 30.35
  A 2.42 2.42 0.0 0 0 255.68 32.72
  L 255.65 58.60
  A 0.56 0.55 87.6 0 0 256.25 59.16
  C 259.48 58.88 262.06 58.15 265.15 57.35
  C 268.16 56.57 271.36 57.08 274.81 56.54
  Q 279.09 55.87 285.01 56.27
  Q 304.85 57.60 321.72 64.72
  Z
  M 168.51 150.21
  C 155.62 187.20 153.18 225.94 161.82 263.66
  C 164.30 274.48 168.33 286.06 173.19 295.54
  C 179.64 308.13 187.11 317.88 197.54 326.70
  Q 205.02 333.01 212.15 336.07
  C 226.39 342.18 242.16 342.98 255.32 334.13
  Q 255.68 333.89 255.68 333.46
  L 255.68 301.59
  A 0.45 0.45 0.0 0 0 255.14 301.15
  C 252.94 301.60 250.82 301.96 248.82 303.10
  C 240.09 308.10 235.42 313.68 224.40 308.74
  C 218.25 305.98 211.53 299.51 207.71 294.52
  C 198.70 282.75 192.99 266.96 190.03 251.99
  C 184.17 222.37 186.28 193.14 195.49 164.45
  Q 198.62 154.69 202.88 145.90
  C 214.05 122.84 230.47 101.67 254.86 91.70
  A 1.32 1.32 0.0 0 0 255.67 90.48
  L 255.69 60.70
  Q 255.69 60.08 255.06 60.12
  Q 253.16 60.26 251.98 60.68
  C 246.35 62.72 238.58 65.57 232.59 69.14
  C 224.39 74.03 216.44 79.03 209.55 85.80
  C 202.28 92.94 195.31 100.17 189.69 108.67
  C 181.15 121.58 173.62 135.57 168.51 150.21
  Z
  M 259.00 90.51
  C 257.04 91.15 255.62 91.32 255.64 93.88
  Q 255.73 106.26 255.63 118.50
  A 0.55 0.55 0.0 0 0 256.38 119.02
  Q 259.33 117.86 262.54 117.24
  C 266.51 116.46 270.13 115.12 274.14 115.02
  C 280.66 114.86 287.20 114.68 293.55 115.85
  C 313.39 119.50 331.49 131.67 345.13 146.49
  C 359.91 162.56 370.80 181.91 378.12 201.40
  Q 388.43 228.87 391.79 259.52
  C 392.38 264.85 393.16 270.16 393.48 275.50
  Q 394.77 296.68 393.13 317.82
  C 392.88 321.09 391.96 325.48 391.93 328.47
  Q 391.88 335.57 393.19 328.60
  Q 395.34 317.13 397.37 305.61
  C 397.94 302.38 398.07 298.63 398.67 295.13
  C 399.09 292.69 398.93 290.10 399.37 287.54
  C 400.50 281.06 400.08 274.32 400.74 267.73
  C 401.08 264.35 401.20 260.46 400.93 257.77
  Q 397.37 222.89 386.08 189.74
  Q 375.75 159.43 356.02 132.27
  C 336.89 105.95 307.11 83.63 273.01 87.20
  Q 267.38 87.79 259.00 90.51
  Z
  M 208.17 164.19
  Q 201.89 177.44 198.44 189.01
  Q 196.35 196.00 195.06 207.77
  C 193.06 225.92 194.84 242.80 201.16 259.80
  Q 202.90 264.49 205.24 266.72
  C 215.07 276.09 230.98 268.66 230.46 255.24
  Q 230.39 253.24 228.23 246.52
  C 223.07 230.45 223.05 213.23 227.42 196.73
  Q 229.88 187.44 236.40 175.10
  Q 243.36 161.92 255.01 153.36
  A 1.73 1.73 0.0 0 0 255.71 151.97
  L 255.72 120.25
  A 0.44 0.43 -9.6 0 0 255.14 119.84
  Q 253.19 120.52 251.19 121.23
  C 248.28 122.27 245.73 124.06 242.99 125.54
  C 228.01 133.64 215.22 149.33 208.17 164.19
  Z
  M 270.62 447.09
  C 266.60 448.57 259.87 452.31 256.34 451.90
  Q 255.69 451.83 255.69 452.48
  L 255.65 480.49
  Q 255.65 481.04 256.18 480.86
  C 260.76 479.32 265.24 478.10 269.61 475.93
  C 273.81 473.84 278.15 471.84 281.97 469.45
  Q 302.51 456.61 316.30 438.78
  Q 331.72 418.83 340.53 399.74
  C 354.98 368.42 362.72 333.13 363.18 297.92
  C 363.76 252.67 354.03 203.91 323.63 168.63
  C 306.65 148.92 281.32 137.46 257.07 152.43
  Q 255.56 153.36 255.58 155.25
  Q 255.71 165.84 255.65 176.20
  Q 255.65 177.46 256.78 176.89
  C 260.17 175.15 263.38 173.36 267.17 172.45
  C 269.89 171.80 272.52 171.02 275.33 171.00
  C 279.01 170.98 282.63 170.82 286.19 171.51
  Q 297.85 173.77 305.56 178.67
  C 353.41 209.07 361.45 283.76 350.86 333.52
  C 347.55 349.07 343.39 363.53 336.59 377.63
  C 327.11 397.27 316.69 412.83 300.99 427.46
  C 298.45 429.82 295.39 431.86 292.56 434.13
  C 287.39 438.27 282.22 441.17 276.68 444.32
  Q 274.07 445.81 270.62 447.09
  Z
  M 242.20 189.46
  C 237.77 199.48 244.33 209.89 255.08 210.78
  A 0.56 0.56 0.0 0 0 255.68 210.22
  L 255.68 178.73
  Q 255.68 177.67 254.78 178.24
  C 250.12 181.17 244.40 184.46 242.20 189.46
  Z
  M 260.93 417.87
  Q 264.17 416.23 267.34 414.48
  C 271.81 412.01 275.75 408.51 279.81 405.31
  Q 284.06 401.97 289.87 394.97
  C 299.04 383.91 307.35 369.16 312.31 356.57
  C 319.17 339.14 323.60 318.28 324.15 298.93
  C 324.91 272.50 320.59 245.49 306.56 222.65
  C 300.43 212.69 286.03 197.12 272.56 203.04
  Q 269.28 204.48 268.23 205.42
  Q 262.94 210.18 256.20 211.12
  Q 255.67 211.20 255.67 211.74
  L 255.65 300.35
  Q 255.65 300.83 256.12 300.89
  Q 266.04 302.05 269.60 310.24
  C 274.82 322.24 265.15 328.92 256.06 334.18
  Q 255.69 334.39 255.69 334.81
  L 255.65 357.98
  Q 255.65 358.57 256.14 358.26
  Q 261.80 354.72 266.07 349.56
  C 283.53 328.47 291.40 296.05 283.74 269.52
  Q 281.57 262.01 281.19 260.02
  C 277.28 239.83 303.63 233.25 310.44 251.31
  C 319.98 276.61 319.28 305.49 310.75 330.81
  C 304.66 348.86 294.45 366.32 280.57 378.08
  C 273.75 383.86 265.39 389.48 256.81 392.20
  A 1.64 1.63 81.3 0 0 255.67 393.76
  L 255.67 419.63
  A 0.43 0.43 0.0 0 0 256.27 420.03
  Q 258.64 419.03 260.93 417.87
  Z"
/>
<path fill="#00a03c" d="
  M 321.72 64.72
  Q 304.85 57.60 285.01 56.27
  Q 279.09 55.87 274.81 56.54
  C 271.36 57.08 268.16 56.57 265.15 57.35
  C 262.06 58.15 259.48 58.88 256.25 59.16
  A 0.56 0.55 87.6 0 1 255.65 58.60
  L 255.68 32.72
  A 2.42 2.42 0.0 0 1 258.53 30.35
  C 262.88 31.14 267.20 30.80 271.40 31.75
  C 274.21 32.38 277.25 32.91 279.85 33.63
  C 304.35 40.44 326.13 56.06 342.17 75.37
  Q 344.32 77.96 341.57 76.02
  C 335.56 71.78 328.46 67.56 321.72 64.72
  Z"
/>
<path fill="#7fe881" d="
  M 168.51 150.21
  C 173.62 135.57 181.15 121.58 189.69 108.67
  C 195.31 100.17 202.28 92.94 209.55 85.80
  C 216.44 79.03 224.39 74.03 232.59 69.14
  C 238.58 65.57 246.35 62.72 251.98 60.68
  Q 253.16 60.26 255.06 60.12
  Q 255.69 60.08 255.69 60.70
  L 255.67 90.48
  A 1.32 1.32 0.0 0 1 254.86 91.70
  C 230.47 101.67 214.05 122.84 202.88 145.90
  Q 198.62 154.69 195.49 164.45
  C 186.28 193.14 184.17 222.37 190.03 251.99
  C 192.99 266.96 198.70 282.75 207.71 294.52
  C 211.53 299.51 218.25 305.98 224.40 308.74
  C 235.42 313.68 240.09 308.10 248.82 303.10
  C 250.82 301.96 252.94 301.60 255.14 301.15
  A 0.45 0.45 0.0 0 1 255.68 301.59
  L 255.68 333.46
  Q 255.68 333.89 255.32 334.13
  C 242.16 342.98 226.39 342.18 212.15 336.07
  Q 205.02 333.01 197.54 326.70
  C 187.11 317.88 179.64 308.13 173.19 295.54
  C 168.33 286.06 164.30 274.48 161.82 263.66
  C 153.18 225.94 155.62 187.20 168.51 150.21
  Z"
/>
<path fill="#00a03c" d="
  M 259.00 90.51
  Q 267.38 87.79 273.01 87.20
  C 307.11 83.63 336.89 105.95 356.02 132.27
  Q 375.75 159.43 386.08 189.74
  Q 397.37 222.89 400.93 257.77
  C 401.20 260.46 401.08 264.35 400.74 267.73
  C 400.08 274.32 400.50 281.06 399.37 287.54
  C 398.93 290.10 399.09 292.69 398.67 295.13
  C 398.07 298.63 397.94 302.38 397.37 305.61
  Q 395.34 317.13 393.19 328.60
  Q 391.88 335.57 391.93 328.47
  C 391.96 325.48 392.88 321.09 393.13 317.82
  Q 394.77 296.68 393.48 275.50
  C 393.16 270.16 392.38 264.85 391.79 259.52
  Q 388.43 228.87 378.12 201.40
  C 370.80 181.91 359.91 162.56 345.13 146.49
  C 331.49 131.67 313.39 119.50 293.55 115.85
  C 287.20 114.68 280.66 114.86 274.14 115.02
  C 270.13 115.12 266.51 116.46 262.54 117.24
  Q 259.33 117.86 256.38 119.02
  A 0.55 0.55 0.0 0 1 255.63 118.50
  Q 255.73 106.26 255.64 93.88
  C 255.62 91.32 257.04 91.15 259.00 90.51
  Z"
/>
<path fill="#7fe881" d="
  M 208.17 164.19
  C 215.22 149.33 228.01 133.64 242.99 125.54
  C 245.73 124.06 248.28 122.27 251.19 121.23
  Q 253.19 120.52 255.14 119.84
  A 0.44 0.43 -9.6 0 1 255.72 120.25
  L 255.71 151.97
  A 1.73 1.73 0.0 0 1 255.01 153.36
  Q 243.36 161.92 236.40 175.10
  Q 229.88 187.44 227.42 196.73
  C 223.05 213.23 223.07 230.45 228.23 246.52
  Q 230.39 253.24 230.46 255.24
  C 230.98 268.66 215.07 276.09 205.24 266.72
  Q 202.90 264.49 201.16 259.80
  C 194.84 242.80 193.06 225.92 195.06 207.77
  Q 196.35 196.00 198.44 189.01
  Q 201.89 177.44 208.17 164.19
  Z"
/>
<path fill="#00a03c" d="
  M 256.34 451.90
  C 259.87 452.31 266.60 448.57 270.62 447.09
  Q 274.07 445.81 276.68 444.32
  C 282.22 441.17 287.39 438.27 292.56 434.13
  C 295.39 431.86 298.45 429.82 300.99 427.46
  C 316.69 412.83 327.11 397.27 336.59 377.63
  C 343.39 363.53 347.55 349.07 350.86 333.52
  C 361.45 283.76 353.41 209.07 305.56 178.67
  Q 297.85 173.77 286.19 171.51
  C 282.63 170.82 279.01 170.98 275.33 171.00
  C 272.52 171.02 269.89 171.80 267.17 172.45
  C 263.38 173.36 260.17 175.15 256.78 176.89
  Q 255.65 177.46 255.65 176.20
  Q 255.71 165.84 255.58 155.25
  Q 255.56 153.36 257.07 152.43
  C 281.32 137.46 306.65 148.92 323.63 168.63
  C 354.03 203.91 363.76 252.67 363.18 297.92
  C 362.72 333.13 354.98 368.42 340.53 399.74
  Q 331.72 418.83 316.30 438.78
  Q 302.51 456.61 281.97 469.45
  C 278.15 471.84 273.81 473.84 269.61 475.93
  C 265.24 478.10 260.76 479.32 256.18 480.86
  Q 255.65 481.04 255.65 480.49
  L 255.69 452.48
  Q 255.69 451.83 256.34 451.90
  Z"
/>
<path fill="#7fe881" d="
  M 242.20 189.46
  C 244.40 184.46 250.12 181.17 254.78 178.24
  Q 255.68 177.67 255.68 178.73
  L 255.68 210.22
  A 0.56 0.56 0.0 0 1 255.08 210.78
  C 244.33 209.89 237.77 199.48 242.20 189.46
  Z"
/>
<path fill="#00a03c" d="
  M 260.93 417.87
  Q 258.64 419.03 256.27 420.03
  A 0.43 0.43 0.0 0 1 255.67 419.63
  L 255.67 393.76
  A 1.64 1.63 81.3 0 1 256.81 392.20
  C 265.39 389.48 273.75 383.86 280.57 378.08
  C 294.45 366.32 304.66 348.86 310.75 330.81
  C 319.28 305.49 319.98 276.61 310.44 251.31
  C 303.63 233.25 277.28 239.83 281.19 260.02
  Q 281.57 262.01 283.74 269.52
  C 291.40 296.05 283.53 328.47 266.07 349.56
  Q 261.80 354.72 256.14 358.26
  Q 255.65 358.57 255.65 357.98
  L 255.69 334.81
  Q 255.69 334.39 256.06 334.18
  C 265.15 328.92 274.82 322.24 269.60 310.24
  Q 266.04 302.05 256.12 300.89
  Q 255.65 300.83 255.65 300.35
  L 255.67 211.74
  Q 255.67 211.20 256.20 211.12
  Q 262.94 210.18 268.23 205.42
  Q 269.28 204.48 272.56 203.04
  C 286.03 197.12 300.43 212.69 306.56 222.65
  C 320.59 245.49 324.91 272.50 324.15 298.93
  C 323.60 318.28 319.17 339.14 312.31 356.57
  C 307.35 369.16 299.04 383.91 289.87 394.97
  Q 284.06 401.97 279.81 405.31
  C 275.75 408.51 271.81 412.01 267.34 414.48
  Q 264.17 416.23 260.93 417.87
  Z"
/>
</svg>
