<?xml version="1.0" encoding="UTF-8" standalone="no"?>
<!DOCTYPE svg PUBLIC "-//W3C//DTD SVG 1.1//EN" "http://www.w3.org/Graphics/SVG/1.1/DTD/svg11.dtd">
<svg xmlns="http://www.w3.org/2000/svg" version="1.1" viewBox="0.00 0.00 512.00 512.00" width="512.00" height="512.00">
<path fill="currentcolor" d="
  M 252.22 0.00
  L 259.35 0.00
  Q 300.02 1.96 332.73 25.57
  Q 361.87 46.61 381.77 77.48
  C 393.82 96.18 404.20 116.38 411.54 137.48
  C 430.31 191.42 435.34 248.94 427.90 305.47
  Q 422.82 344.07 411.33 375.12
  C 394.29 421.15 367.05 465.62 323.97 492.16
  Q 294.19 510.51 259.20 512.00
  L 251.95 512.00
  C 157.55 507.80 103.16 410.07 87.26 328.98
  C 73.55 259.04 78.98 182.41 108.06 116.77
  C 113.15 105.29 120.14 92.22 129.79 77.26
  Q 149.13 47.27 177.92 26.22
  Q 211.18 1.90 252.22 0.00
  Z
  M 277.73 331.69
  C 267.37 353.78 246.98 371.77 221.15 365.81
  C 213.16 363.96 205.21 359.13 198.42 354.12
  C 189.65 347.65 183.59 339.08 177.36 330.38
  C 171.07 321.59 166.03 311.20 162.26 301.48
  C 146.77 261.57 144.36 215.56 151.42 173.84
  C 157.63 137.19 171.42 103.46 193.93 74.01
  C 198.71 67.76 204.84 61.20 210.83 56.10
  C 214.57 52.91 218.08 49.62 222.24 46.92
  Q 224.98 45.14 227.71 43.32
  C 232.47 40.15 237.19 37.99 242.26 35.53
  C 246.39 33.52 250.89 32.33 255.05 30.96
  Q 258.11 29.96 254.89 30.01
  C 218.39 30.64 187.55 51.73 165.45 79.18
  C 147.71 101.20 134.62 127.40 125.71 154.46
  Q 122.62 163.82 121.04 173.86
  C 112.41 228.70 119.57 293.88 148.43 341.33
  C 156.83 355.14 168.91 369.99 182.21 379.56
  C 190.14 385.27 200.05 391.27 209.57 393.76
  C 216.94 395.69 224.23 397.29 231.93 397.01
  C 278.13 395.36 306.82 355.88 314.74 314.26
  Q 316.83 303.26 317.08 295.50
  C 317.58 280.36 315.47 268.03 310.85 253.76
  Q 309.34 249.11 307.57 246.89
  C 298.71 235.83 280.95 241.75 280.87 255.89
  Q 280.86 258.25 283.20 265.72
  C 290.13 287.76 287.30 311.26 277.73 331.69
  Z
  M 401.28 254.68
  C 400.86 212.01 393.46 167.84 375.76 128.75
  Q 366.45 108.18 356.56 93.69
  Q 354.76 91.05 348.45 82.49
  Q 346.40 79.71 343.72 77.84
  Q 336.79 72.99 329.42 68.85
  C 324.29 65.96 318.62 63.96 313.00 61.85
  C 309.01 60.35 304.84 59.57 300.67 58.59
  C 291.14 56.34 281.70 56.41 272.01 57.03
  C 265.41 57.45 259.58 58.94 253.30 60.48
  C 249.24 61.47 245.42 63.29 241.49 64.85
  C 235.53 67.21 230.62 70.24 225.30 73.45
  C 221.93 75.47 218.83 78.15 215.64 80.57
  C 210.14 84.75 204.27 90.35 199.89 95.68
  C 196.63 99.65 193.14 103.55 190.36 107.67
  Q 180.73 122.01 173.52 137.68
  C 167.30 151.21 163.59 165.52 160.55 180.14
  C 154.74 208.01 155.58 237.14 162.08 264.74
  C 166.22 282.36 174.24 301.23 185.37 314.64
  C 191.73 322.31 201.45 331.26 210.84 335.49
  C 218.22 338.82 226.09 341.03 234.28 340.74
  C 244.58 340.38 253.96 336.18 262.42 329.85
  Q 267.59 325.97 269.28 322.46
  C 273.89 312.90 266.44 301.40 255.73 301.27
  C 247.76 301.18 243.02 308.88 235.09 310.42
  C 226.41 312.10 217.52 305.17 211.90 299.27
  C 200.29 287.07 193.61 269.61 190.27 253.50
  Q 183.94 222.97 188.76 191.75
  Q 191.06 176.91 197.58 158.14
  C 199.30 153.20 201.74 148.52 204.06 143.75
  C 211.95 127.55 221.52 114.15 234.89 103.54
  C 254.20 88.20 277.86 82.46 301.77 89.73
  C 317.13 94.40 333.30 105.88 343.72 116.79
  C 363.52 137.51 378.58 165.81 387.77 193.74
  Q 397.36 222.88 400.82 254.09
  Q 400.85 254.36 401.10 254.73
  Q 401.28 254.98 401.28 254.68
  Z
  M 282.46 469.48
  C 274.65 474.68 265.27 478.31 256.41 480.98
  Q 253.06 481.99 256.56 481.95
  C 286.59 481.62 314.15 466.49 334.66 445.42
  C 358.00 421.43 374.63 390.53 385.30 358.56
  Q 388.46 349.08 390.09 339.17
  C 394.65 311.57 394.85 282.34 390.99 254.51
  C 385.39 214.06 371.02 175.04 343.91 145.72
  C 330.54 131.26 312.35 119.55 292.74 116.00
  C 267.48 111.42 241.69 121.73 224.14 140.89
  C 209.93 156.41 200.79 176.41 196.79 196.82
  C 192.60 218.20 193.34 238.54 201.01 259.49
  Q 203.93 267.45 210.52 269.92
  C 222.67 274.45 233.74 262.26 229.72 250.83
  Q 225.01 237.45 224.30 224.86
  C 222.51 193.02 242.50 143.94 282.15 145.07
  C 293.36 145.39 303.75 150.99 312.79 157.76
  C 321.53 164.32 327.56 172.67 333.81 181.37
  Q 337.39 186.37 339.83 190.84
  C 349.93 209.37 356.39 229.52 359.91 250.27
  C 365.97 285.94 364.72 322.86 355.64 357.96
  C 348.02 387.42 336.36 412.94 317.91 437.34
  C 311.60 445.69 304.13 452.72 296.21 459.58
  C 291.79 463.40 287.25 466.29 282.46 469.48
  Z
  M 313.66 354.07
  C 310.16 364.05 304.48 374.11 298.89 383.07
  C 280.22 413.01 247.82 432.42 211.81 422.94
  C 195.22 418.57 177.63 405.99 166.59 394.16
  C 154.13 380.83 142.57 363.07 134.56 345.84
  C 121.68 318.16 113.83 288.19 110.56 257.95
  Q 110.50 257.40 110.42 257.94
  Q 110.05 260.56 110.10 263.50
  C 111.15 321.60 127.33 382.89 162.78 429.38
  Q 165.12 432.45 168.19 434.60
  C 179.44 442.45 192.08 449.18 205.54 452.28
  C 214.95 454.44 224.60 456.07 234.38 455.34
  C 239.12 454.99 243.74 454.87 248.42 453.76
  C 253.82 452.47 258.97 451.51 264.05 449.49
  Q 267.72 448.04 271.36 446.55
  C 280.11 442.98 287.90 437.40 295.36 431.68
  C 314.57 416.92 328.15 395.74 337.95 374.05
  C 344.05 360.55 347.65 346.49 350.73 332.02
  Q 352.51 323.65 353.25 317.39
  C 357.97 277.17 351.64 230.23 325.91 197.34
  Q 320.72 190.70 311.69 183.54
  Q 305.76 178.85 300.24 176.39
  C 292.80 173.07 284.87 170.95 276.64 171.29
  C 266.65 171.70 257.59 175.77 249.33 181.84
  Q 243.84 185.87 242.07 189.48
  C 237.28 199.23 245.14 210.90 256.06 210.75
  C 261.02 210.68 265.61 207.12 269.46 204.43
  C 282.01 195.70 296.20 207.82 303.66 217.58
  C 312.61 229.28 318.23 244.72 321.21 259.51
  Q 327.37 290.13 322.44 321.00
  Q 320.08 335.77 313.66 354.07
  Z"
/>
</svg>
